<svg xmlns="http://www.w3.org/2000/svg" width="55.001" height="70" viewBox="0 0 55.001 70"><defs><style>.a{fill:#fff;}</style></defs><g transform="translate(-54.811)"><g transform="translate(54.811)"><path class="a" d="M78.521,0a2.6,2.6,0,0,0-1.852.742A2.344,2.344,0,0,0,75.886,2.5v16.25a2.345,2.345,0,0,1-.782,1.758,2.683,2.683,0,0,1-3.705,0,2.343,2.343,0,0,1-.782-1.758V2.5A2.344,2.344,0,0,0,69.835.745a2.683,2.683,0,0,0-3.7,0A2.345,2.345,0,0,0,65.348,2.5v16.25a2.345,2.345,0,0,1-.782,1.758,2.682,2.682,0,0,1-3.7,0,2.343,2.343,0,0,1-.782-1.758V2.5A2.344,2.344,0,0,0,59.3.745a2.683,2.683,0,0,0-3.7,0A2.345,2.345,0,0,0,54.811,2.5v25a7.064,7.064,0,0,0,1.461,4.336,7.666,7.666,0,0,0,3.807,2.734V65a4.689,4.689,0,0,0,1.564,3.515A5.2,5.2,0,0,0,65.348,70h5.268a5.2,5.2,0,0,0,3.7-1.485A4.687,4.687,0,0,0,75.885,65V34.572a7.669,7.669,0,0,0,3.807-2.734A7.065,7.065,0,0,0,81.153,27.5V2.5A2.346,2.346,0,0,0,80.372.745,2.6,2.6,0,0,0,78.521,0Z" transform="translate(-54.811 -0.003)"/><path class="a" d="M299.644.742A2.6,2.6,0,0,0,297.792,0H287.255a13.031,13.031,0,0,0-9.3,3.672,11.739,11.739,0,0,0-3.87,8.828V43.75a1.176,1.176,0,0,0,.391.879A1.3,1.3,0,0,0,275.4,45h9.22V65a4.689,4.689,0,0,0,1.564,3.515A5.2,5.2,0,0,0,289.89,70h5.267a5.2,5.2,0,0,0,3.7-1.484A4.689,4.689,0,0,0,300.427,65V2.5A2.348,2.348,0,0,0,299.644.742Z" transform="translate(-245.425)"/></g></g></svg>