<svg xmlns="http://www.w3.org/2000/svg" width="16" height="13.539" viewBox="0 0 16 13.539"><g transform="translate(2 -36.543)"><g transform="translate(-2 36.543)"><path d="M365.446,366.986a1.533,1.533,0,1,0,.449-1.084A1.477,1.477,0,0,0,365.446,366.986Z" transform="translate(-354.045 -354.98)"/><path d="M15.817,37.879a.609.609,0,0,0-.433-.173H3.837q-.01-.064-.043-.232t-.053-.268a1.536,1.536,0,0,0-.072-.241.713.713,0,0,0-.125-.223.621.621,0,0,0-.466-.2H.616a.609.609,0,0,0-.433.173.549.549,0,0,0,0,.818.609.609,0,0,0,.433.173H2.577l1.7,7.482q-.019.036-.2.345t-.284.541a.956.956,0,0,0-.106.359.545.545,0,0,0,.183.409.61.61,0,0,0,.433.173h9.846a.61.61,0,0,0,.433-.173.549.549,0,0,0,0-.818.609.609,0,0,0-.433-.173H5.308a1.694,1.694,0,0,0,.231-.582.931.931,0,0,0-.024-.2q-.024-.109-.058-.241t-.043-.2l10.039-1.109a.608.608,0,0,0,.394-.2A.555.555,0,0,0,16,42.943V38.289A.545.545,0,0,0,15.817,37.879Z" transform="translate(0 -36.543)"/><path d="M109.632,366.986a1.533,1.533,0,1,0,.449-1.084A1.476,1.476,0,0,0,109.632,366.986Z" transform="translate(-106.105 -354.98)"/></g></g></svg>