<svg xmlns="http://www.w3.org/2000/svg" width="70" height="67.305" viewBox="0 0 70 67.305"><defs><style>.a{fill:#fff;}</style></defs><g transform="translate(0 -9.147)"><g transform="translate(0 9.147)"><path class="a" d="M125.682,224.6v24.221a5.347,5.347,0,0,1-10.69,0,2.673,2.673,0,0,0-5.346,0,10.691,10.691,0,0,0,21.382,0V224.6a8.005,8.005,0,0,0-5.345,0Z" transform="translate(-93.439 -192.202)"/><path class="a" d="M224.627,15.913V11.82a2.673,2.673,0,0,0-5.346,0v4.092q1.753-.083,2.672-.084T224.627,15.913Z" transform="translate(-186.953 -9.147)"/><path class="a" d="M69.956,88.691a29.177,29.177,0,0,0-4.859-10.5,31.239,31.239,0,0,0-8.183-7.809,39.2,39.2,0,0,0-10.369-4.74,41.4,41.4,0,0,0-26.712,1.169A34.425,34.425,0,0,0,7.3,75.349,29.5,29.5,0,0,0,.042,88.691.7.7,0,0,0,0,88.984a1.278,1.278,0,0,0,.4.939,1.3,1.3,0,0,0,.946.4,1.543,1.543,0,0,0,.968-.417,18.17,18.17,0,0,1,3.912-2.881,9.19,9.19,0,0,1,4.291-.961A10.141,10.141,0,0,1,15.9,87.606a14.928,14.928,0,0,1,4.333,4.05q.295.419.736,1.169t.61,1a1.371,1.371,0,0,0,1.178.71,1.4,1.4,0,0,0,1.22-.71q.168-.25.61-1t.736-1.169a15.041,15.041,0,0,1,4.312-4.05,10.08,10.08,0,0,1,10.727,0,15.03,15.03,0,0,1,4.311,4.05c.2.279.442.669.737,1.169s.5.837.611,1a1.4,1.4,0,0,0,1.219.71,1.368,1.368,0,0,0,1.177-.71q.17-.25.611-1c.295-.5.539-.889.737-1.169a14.95,14.95,0,0,1,4.332-4.05,10.142,10.142,0,0,1,5.385-1.545,9.189,9.189,0,0,1,4.291.961A18.188,18.188,0,0,1,67.687,89.9a1.543,1.543,0,0,0,.968.417,1.3,1.3,0,0,0,.946-.4,1.279,1.279,0,0,0,.4-.939A.69.69,0,0,0,69.956,88.691Z" transform="translate(0 -55.95)"/></g></g></svg>